<svg xmlns="http://www.w3.org/2000/svg" viewBox="0 0 340.87 269.93"><defs><style>.cls-1{fill:#a3a3a3;}.cls-2{fill:#fff;}</style></defs><g id="Layer_2" data-name="Layer 2"><g id="Layer_1-2" data-name="Layer 1"><path class="cls-1" d="M340.85,7.17V124.74a7.13,7.13,0,0,1-10.67,6.2L254.26,87.39a1.45,1.45,0,0,1-.69-1V45.56a1,1,0,0,1,.69-1L330.18,1A7.13,7.13,0,0,1,340.85,7.17Z"/><path class="cls-2" d="M241.41,2.17V128.7a1.18,1.18,0,0,1-1.2,1.21H188.39c-25.48,0-48.72-15.15-58-38.74C119.71,63.8,127.11,37,144.32,19.91A64.12,64.12,0,0,1,189.94,1h50.44A1.15,1.15,0,0,1,241.41,2.17Z"/><path class="cls-2" d="M321.91,251a64.38,64.38,0,0,1-45.62,18.94H179a1.18,1.18,0,0,1-1.2-1.21V142.19A1.17,1.17,0,0,1,179,141h98.81c26.51,0,50.62,16.7,59.22,41.83C346,209.16,338.44,234.46,321.91,251Z"/><path class="cls-2" d="M111.21,40.05c10.5,27.37,3.1,53.88-13.95,70.92a64.09,64.09,0,0,1-45.62,18.94H1.21A1.18,1.18,0,0,1,0,128.7V2.17A1.18,1.18,0,0,1,1.21,1H53.54C78.84,1,102.08,16.29,111.21,40.05Z"/><path class="cls-2" d="M167,204.68V209a60.76,60.76,0,0,1-60.77,60.76H1.21A1.18,1.18,0,0,1,0,268.55V142a1.18,1.18,0,0,1,1.21-1.2H103.12C138.23,141,167,169.56,167,204.68Z"/></g></g></svg>