<svg xmlns="http://www.w3.org/2000/svg" viewBox="0 0 1008.91 181.01"><defs><style>.cls-1{fill:#fff;}.cls-2{fill:#a3a3a3;}</style></defs><g id="Layer_2" data-name="Layer 2"><g id="Layer_1-2" data-name="Layer 1"><path class="cls-1" d="M276.82,177.54c0-21.95,1.24-63.24,1.24-83.94,8.06-.62,20.58-.75,29.13-.75,15.25,0,31,3.85,31,20.83,0,6.33-4.09,12.52-13.64,15.87,11.91,1.24,20.34,10.67,20.34,20.09,0,10.41-6.82,18.1-15.38,22.69-10.29,4.46-23.06,5.21-38.68,5.21Zm18.84-39.06C295.17,148.9,295,154.6,295,164h4.47c13.88,0,26.65-.87,26.65-13.39,0-10.29-10.16-12.15-18.72-12.15Zm8.81-12.77c7.68,0,15.25-.87,15.25-9.55,0-6.94-5.83-9.67-12.4-9.67-5.09,0-6.95,0-11.28.12,0,6.82-.13,11.78-.25,19.1Z"/><path class="cls-1" d="M428.71,136.37c0,24.8-16,42-42.78,42-21.57,0-38.19-14.76-38.19-39.81S361.51,91.24,389,91.24C414.2,91.24,428.71,107.36,428.71,136.37Zm-61.87-2.11c0,21,8.31,29.76,20.46,29.76,16.12,0,22.56-10.41,22.56-25.17,0-22.56-7.06-33.35-21.45-33.35C374.28,105.5,366.84,118.77,366.84,134.26Z"/><path class="cls-1" d="M471.12,92.48C480.79,120,492.2,146.54,502,176.17l-20,1.74c-1.48-5-3.84-11.66-6.2-18.6-3.34.12-6.82.12-10.41.12-6.57,0-13.27-.12-19.47-.37-2.11,5.71-4.21,12.15-6.07,18.73l-16.12-1.86C432.81,148.28,444.71,122,456,92.48ZM450.91,144.8c2.61.25,7.32.5,13.27.5,2.11,0,4.34-.12,6.57-.12-4.59-12.65-8.68-24.06-9.55-27.65C457.48,127.07,454,135.88,450.91,144.8Z"/><path class="cls-1" d="M557.05,181c-10.17-10.29-18-24-23.43-35.46-3.1.62-6.2,1.11-8.81,1.36,0,8.19,0,18.72.13,29.26l-18.23.75c0-44.14,0-63-.62-82.58a64.83,64.83,0,0,1,13.64-1.49c19,0,47.61.13,47.61,24.92,0,11.66-8.8,19-19.09,23.31,6.82,10.54,17,23.32,23.56,31.37Zm-32.61-47.49c12-1.73,24.43-4.71,24.43-14.38,0-11.29-12.4-11.78-24.43-11.78Z"/><path class="cls-1" d="M575.28,177.29c0-32.73.75-67.08,1.62-84.31,7.93-.38,13.14-.38,18.22-.38,30.26,0,50.59,8.81,50.59,40.92,0,35.34-21.2,43.77-51,43.77Zm19.22-70.43c-.74,19.72-.87,35.71-.87,56.42,2.36.12,4.34.12,6.33.12,18.23,0,27-6.44,27-27.28,0-17.73-6.08-29.26-21.58-29.26Z"/><path class="cls-2" d="M224.37,4.72v77.4a4.69,4.69,0,0,1-7,4.08l-50-28.67a1,1,0,0,1-.45-.68V30a.62.62,0,0,1,.45-.68l50-28.67A4.69,4.69,0,0,1,224.37,4.72Z"/><path class="cls-1" d="M158.92,1.43V84.72a.78.78,0,0,1-.8.8H124c-16.77,0-32.07-10-38.18-25.5-7-18-2.16-35.7,9.17-46.92A42.24,42.24,0,0,1,125,.64h33.21A.76.76,0,0,1,158.92,1.43Z"/><path class="cls-1" d="M211.91,165.22a42.4,42.4,0,0,1-30,12.47h-64a.78.78,0,0,1-.79-.8V93.6a.77.77,0,0,1,.79-.79H182.9a41.18,41.18,0,0,1,39,27.54C227.77,137.68,222.79,154.34,211.91,165.22Z"/><path class="cls-1" d="M73.21,26.36c6.91,18,2,35.47-9.18,46.69A42.21,42.21,0,0,1,34,85.52H.79a.78.78,0,0,1-.79-.8V1.43A.77.77,0,0,1,.79.64H35.24A40.6,40.6,0,0,1,73.21,26.36Z"/><path class="cls-1" d="M109.92,134.74v2.83a40,40,0,0,1-40,40H.79a.77.77,0,0,1-.79-.79V93.49a.77.77,0,0,1,.79-.79H67.88A42.24,42.24,0,0,1,109.92,134.74Z"/><path class="cls-1" d="M702.25,123.11c0-11.91-6.2-18.11-18.35-18.11-9.42,0-14.75,3.23-14.75,7.94,0,8.8,17.36,10.17,29,13.51,10.91,3.1,21.45,10.54,21.45,24.68,0,16-12.27,27.15-32,27.15-18.22,0-36.2-10.54-36.2-29.26a32.31,32.31,0,0,1,.74-6.7l14.14,1.37c1.24,14.13,10,20.33,23.8,20.33,6.95,0,12.28-3.1,12.28-11.4,0-6-7-8.56-11.16-10.05-16.74-5.45-38.81-5.95-38.81-27.77,0-13.27,12.27-23.31,33.1-23.31,17.36,0,31.87,7.44,31.87,23.8a37.9,37.9,0,0,1-.5,6.58Z"/><path class="cls-1" d="M721.11,93.72c14.75-.74,29.75-1.12,44.63-1.12,8.06,0,16.12.13,24.06.38,0,3.22-.25,10.66-.5,13.76-18.23,0-20-.13-25.29-.13,0,22.07-.13,45.88-1.12,69.32l-18.23,1c1-23.93,1.12-47,1.12-70.06-7.94,0-15.87.25-24.67.37Z"/><path class="cls-1" d="M867.05,136.37c0,24.8-16,42-42.78,42-21.57,0-38.19-14.76-38.19-39.81s13.77-47.36,41.29-47.36C852.54,91.24,867.05,107.36,867.05,136.37Zm-61.87-2.11c0,21,8.31,29.76,20.46,29.76,16.11,0,22.56-10.41,22.56-25.17,0-22.56-7.07-33.35-21.45-33.35C812.62,105.5,805.18,118.77,805.18,134.26Z"/><path class="cls-1" d="M926.08,181c-10.17-10.29-18-24-23.44-35.46-3.1.62-6.2,1.11-8.8,1.36,0,8.19,0,18.72.12,29.26l-18.23.75c0-44.14,0-63-.62-82.58a64.83,64.83,0,0,1,13.64-1.49c19,0,47.62.13,47.62,24.92,0,11.66-8.81,19-19.1,23.31,6.82,10.54,17,23.32,23.56,31.37Zm-32.61-47.49c12-1.73,24.42-4.71,24.42-14.38,0-11.29-12.4-11.78-24.42-11.78Z"/><path class="cls-1" d="M1008.91,97.56c-8.19,12.16-18.73,28.4-29.27,46.62v32.24l-18.72.75c0-9.55.37-20,.37-31.87-9.42-16-16.86-28.39-27.27-49.22l18.47-3.85a366.39,366.39,0,0,0,19.72,37.57c6.94-12.52,15.37-26.66,24.3-38.81Z"/></g></g></svg>